ply
format ascii 1.0
comment Created by Blender 2.59 (sub 0) - www.blender.org, source file: ''
element vertex 338
property float x
property float y
property float z
property float nx
property float ny
property float nz
property float s
property float t
element face 298
property list uchar uint vertex_indices
end_header
0.024489 -0.100609 0.055828 0.000000 -0.999481 -0.031617 0.489329 0.670523 
0.280320 -0.100609 0.055828 0.364818 -0.930357 0.036012 0.489328 0.580678 
0.225890 -0.107457 0.686699 0.521928 -0.847804 0.093661 0.267761 0.599794 
0.024489 -0.107457 0.686699 0.000000 -0.999969 0.004395 0.267761 0.670524 
0.160536 0.442101 0.267340 0.501694 0.850948 0.155400 0.162391 0.752178 
0.024489 0.442101 0.267340 0.000000 0.990173 0.139714 0.162127 0.704401 
0.024489 0.358256 0.594043 0.000000 0.792413 0.609973 0.043676 0.705060 
0.119721 0.358256 0.594043 0.296854 0.783837 0.545366 0.043861 0.738500 
0.024489 0.258139 -1.134703 0.000000 -0.707083 -0.707083 0.874288 0.784301 
0.141209 0.258139 -1.134703 -0.471877 -0.649922 -0.595721 0.874288 0.743395 
0.180886 0.136302 -1.134703 -0.774255 0.175939 -0.607868 0.831500 0.729462 
0.024489 0.101698 -1.134703 0.000000 0.707083 -0.707083 0.819348 0.784301 
0.147884 0.101698 -1.134703 -0.306192 0.715140 -0.628315 0.819348 0.741051 
0.085902 0.095955 1.332946 -0.412305 -0.679464 0.606861 0.785260 0.914481 
0.024489 0.095955 1.332946 0.000000 -0.707083 0.707083 0.785260 0.935973 
0.024489 -0.072200 1.332946 0.000000 0.707083 0.707083 0.844315 0.935972 
0.116909 0.036394 1.332946 -0.780541 -0.037690 0.623920 0.806178 0.903592 
0.073103 -0.072200 1.332946 -0.447432 0.662954 0.600208 0.844315 0.918976 
0.024489 0.078698 -1.244187 0.000000 -0.614368 -0.788995 0.952139 0.670519 
0.164387 0.078698 -1.244187 0.267281 -0.612323 -0.744011 0.952138 0.621389 
0.272813 -0.061477 -0.689726 0.304636 -0.936918 -0.171178 0.751291 0.583313 
0.024489 -0.061477 -0.689726 0.000000 -0.988739 -0.149449 0.751292 0.670522 
0.087276 -0.093200 1.410961 0.385418 -0.658711 0.646138 0.013478 0.648474 
0.024489 -0.093200 1.410961 0.000000 -0.700095 0.714011 0.013478 0.670525 
0.166644 0.429597 -0.531496 0.354717 0.886807 -0.296152 0.443267 0.752771 
0.024489 0.429597 -0.531496 0.000000 0.921964 -0.387249 0.442992 0.702849 
0.024489 0.453974 -0.140110 0.000000 0.999847 -0.016511 0.305277 0.703610 
0.172089 0.453974 -0.140110 0.466872 0.884060 -0.020875 0.305564 0.755444 
1.275092 0.093955 -0.983018 0.405011 -0.602863 -0.687368 0.634246 0.688242 
1.274872 0.121198 -0.986660 0.396283 0.517960 -0.758049 0.635061 0.678626 
1.425318 0.121198 -0.652467 0.815332 0.574755 0.069704 0.506453 0.683772 
1.425108 0.091859 -0.646506 0.812525 -0.556139 0.174566 0.504990 0.694171 
0.087276 -0.093200 1.410961 0.385418 -0.658711 0.646138 0.016437 0.582556 
0.225890 -0.107457 0.686699 0.521928 -0.847804 0.093661 0.275029 0.567920 
0.349684 0.143252 0.686699 0.913450 0.357768 0.193854 0.275975 0.469760 
0.140003 0.037510 1.410961 0.686422 0.007263 0.727134 0.016213 0.533118 
0.280320 -0.100609 0.055828 0.364818 -0.930357 0.036012 0.496987 0.561031 
0.272813 -0.061477 -0.689726 0.304636 -0.936918 -0.171178 0.758987 0.571316 
0.375938 0.008709 -0.680490 0.328318 -0.924589 -0.193182 0.758401 0.527396 
0.382559 -0.024671 0.056698 0.402509 -0.879513 0.253761 0.499469 0.516382 
0.164387 0.078698 -1.244187 0.267281 -0.612323 -0.744011 0.962828 0.586745 
0.389963 0.079002 -0.836519 0.423566 -0.634968 -0.646016 0.816896 0.512743 
0.205118 0.136166 -1.244187 0.616077 -0.089908 -0.782495 0.967351 0.563288 
0.157908 0.281139 -1.244187 0.354320 0.653768 -0.668569 0.996402 0.518310 
0.389963 0.140065 -0.836519 0.555437 0.575182 -0.600513 0.826049 0.494401 
0.281873 0.287109 -0.689726 0.240028 0.922849 -0.301126 0.827450 0.412162 
0.374413 0.193398 -0.719422 0.333506 0.695090 -0.636830 0.805205 0.453988 
0.289381 0.287109 0.013375 0.526597 0.827570 0.194372 0.297138 0.455997 
0.272019 0.191825 0.228140 0.655141 0.727287 0.204413 0.379118 0.448823 
0.409991 0.141062 0.225399 0.503708 0.692831 0.515946 0.378493 0.397703 
0.455699 0.287109 0.013375 0.404187 0.803735 0.436598 0.286467 0.398646 
0.409991 0.099008 0.225399 0.657186 -0.506821 0.557848 0.439901 0.475768 
0.409991 0.141062 0.225399 0.503708 0.692831 0.515946 0.438799 0.462360 
0.409991 0.099008 0.225399 0.657186 -0.506821 0.557848 0.439585 0.475946 
0.382559 -0.024671 0.056698 0.402509 -0.879513 0.253761 0.499379 0.518015 
0.382559 -0.024671 0.056698 0.402509 -0.879513 0.253761 0.794338 0.355595 
0.375938 0.008709 -0.680490 0.328318 -0.924589 -0.193182 0.679892 0.123066 
1.275092 0.093955 -0.983018 0.405011 -0.602863 -0.687368 0.348617 0.169471 
1.425108 0.091859 -0.646506 0.812525 -0.556139 0.174566 0.354474 0.298731 
0.389963 0.079002 -0.836519 0.423566 -0.634968 -0.646016 0.648206 0.071762 
0.389963 0.079002 -0.836519 0.423566 -0.634968 -0.646016 0.947278 0.724442 
0.389963 0.140065 -0.836519 0.555437 0.575182 -0.600513 0.949387 0.703120 
1.274872 0.121198 -0.986660 0.396283 0.517960 -0.758049 0.635057 0.678664 
0.389963 0.140065 -0.836519 0.555437 0.575182 -0.600513 0.362484 0.374162 
0.739126 0.178003 -0.694695 0.246101 0.902707 -0.352886 0.291451 0.261696 
1.274872 0.121198 -0.986660 0.396283 0.517960 -0.758049 0.077396 0.239528 
0.409991 0.141062 0.225399 0.503708 0.692831 0.515946 0.569177 0.056714 
0.623682 0.142693 0.211640 0.349590 0.593738 0.724723 0.503753 0.019629 
0.452492 0.179611 0.048956 0.673025 0.629109 0.388867 0.521928 0.101583 
0.409991 0.099008 0.225399 0.657186 -0.506821 0.557848 0.017041 0.695399 
0.623622 0.098587 0.213369 0.391125 -0.466628 0.793237 0.092174 0.696617 
0.623682 0.142693 0.211640 0.349590 0.593738 0.724723 0.092451 0.681126 
0.409991 0.141062 0.225399 0.503708 0.692831 0.515946 0.017250 0.680634 
0.409991 0.099008 0.225399 0.657186 -0.506821 0.557848 0.810277 0.427951 
0.623622 0.098587 0.213369 0.391125 -0.466628 0.793237 0.738504 0.450203 
0.349684 0.143252 0.686699 0.913450 0.357768 0.193854 0.540394 0.418696 
0.234950 0.192586 0.686699 0.314798 0.903104 0.292001 0.540164 0.461722 
0.098644 0.116956 1.410962 0.329600 0.641987 0.692190 0.797043 0.501257 
0.140003 0.037510 1.410961 0.686422 0.007263 0.727134 0.802183 0.472604 
0.389963 0.079002 -0.836519 0.423566 -0.634968 -0.646016 0.817003 0.512798 
0.205118 0.136166 -1.244187 0.616077 -0.089908 -0.782495 0.967238 0.563233 
0.289381 0.287109 0.013375 0.526597 0.827570 0.194372 0.256175 0.830174 
0.281873 0.287109 -0.689726 0.240028 0.922849 -0.301126 0.502528 0.813598 
0.166644 0.429597 -0.531496 0.354717 0.886807 -0.296152 0.443222 0.752772 
0.234950 0.192586 0.686699 0.314798 0.903104 0.292001 0.008942 0.831945 
0.272019 0.191825 0.228140 0.655141 0.727287 0.204413 0.169232 0.848982 
0.160536 0.442101 0.267340 0.501694 0.850948 0.155400 0.163071 0.752602 
0.119721 0.358256 0.594043 0.296854 0.783837 0.545366 0.044767 0.763554 
0.160536 0.442101 0.267340 0.501694 0.850948 0.155400 0.163131 0.752067 
0.024489 0.116956 1.410961 0.000000 0.665120 0.746727 0.876061 0.398615 
0.098644 0.116956 1.410962 0.329600 0.641987 0.692190 0.901844 0.394949 
0.104203 0.137050 1.237698 0.127079 0.977691 0.167119 0.895154 0.334028 
0.024489 0.137050 1.237698 0.000000 0.978729 0.204993 0.867499 0.337961 
0.234950 0.192586 0.686699 0.314798 0.903104 0.292001 0.913239 0.135039 
0.201084 0.184784 0.688739 0.220740 0.850032 0.478195 0.901609 0.137730 
0.119721 0.358256 0.594043 0.296854 0.783837 0.545366 0.872751 0.068390 
0.101149 0.329454 0.610152 0.114353 0.688131 0.716483 0.866236 0.079977 
0.201084 0.184784 0.688739 0.220740 0.850032 0.478195 0.901333 0.137793 
0.024489 0.358256 0.594043 0.000000 0.792413 0.609973 0.839311 0.068390 
0.024489 0.329454 0.610152 0.000000 0.778069 0.628132 0.839383 0.079977 
0.024489 0.329454 0.610152 0.000000 0.778069 0.628132 0.815242 0.102474 
0.024489 0.137050 1.237698 0.000000 0.978729 0.204993 0.815249 0.332987 
0.104203 0.137050 1.237698 0.127079 0.977691 0.167119 0.843182 0.332986 
0.101149 0.329454 0.610152 0.114353 0.688131 0.716483 0.842103 0.102473 
0.201084 0.184784 0.688739 0.220740 0.850032 0.478195 0.895750 0.143665 
0.166644 0.429597 -0.531496 0.354717 0.886807 -0.296152 0.020646 0.936904 
0.281873 0.287109 -0.689726 0.240028 0.922849 -0.301126 0.095647 0.976957 
0.247597 0.281778 -0.692996 0.203864 0.932005 -0.299570 0.097687 0.964908 
0.146980 0.407514 -0.556018 0.074709 0.836726 -0.542467 0.032197 0.929934 
0.157908 0.281139 -1.244187 0.354320 0.653768 -0.668569 0.293008 0.947619 
0.165677 0.286745 -1.019037 0.073763 0.993255 -0.089389 0.213946 0.944621 
0.247597 0.281778 -0.692996 0.203864 0.932005 -0.299570 0.097666 0.965035 
0.024489 0.281139 -1.244187 0.000000 0.698233 -0.715842 0.296397 0.900887 
0.024489 0.286744 -1.019036 0.000000 0.990204 -0.139561 0.217532 0.895167 
0.024489 0.286744 -1.019036 0.000000 0.990204 -0.139561 0.209139 0.865045 
0.024489 0.407514 -0.556018 0.000000 0.880367 -0.474258 0.041095 0.865975 
0.146980 0.407514 -0.556018 0.074709 0.836726 -0.542467 0.041333 0.908991 
0.165677 0.286745 -1.019037 0.073763 0.993255 -0.089389 0.209413 0.914627 
0.247597 0.281778 -0.692996 0.203864 0.932005 -0.299570 0.098818 0.955980 
1.425318 0.121198 -0.652467 0.815332 0.574755 0.069704 0.100291 0.112873 
0.858467 0.178003 -0.339700 0.376385 0.919462 0.113559 0.327434 0.135189 
0.359806 0.660358 -0.737067 -0.536943 0.503525 -0.676809 0.715080 0.840924 
0.361125 0.660358 -0.446952 -0.598651 0.753990 0.270302 0.613211 0.842764 
0.377766 0.660358 -0.446952 0.601459 0.753502 0.265389 0.613290 0.848608 
0.376447 0.660358 -0.737067 0.537065 0.501389 -0.678304 0.715159 0.846767 
0.448191 0.287109 -0.689726 0.089541 0.798242 -0.595599 0.044252 0.444516 
0.813792 0.231637 -0.337916 0.576861 0.795892 0.183691 0.142927 0.295090 
0.706957 0.231637 -0.682955 0.392987 0.705588 -0.589618 0.030096 0.352976 
0.452492 0.179611 0.048956 0.673025 0.629109 0.388867 0.308793 0.365960 
0.858467 0.178003 -0.339700 0.376385 0.919462 0.113559 0.135562 0.271909 
0.281873 0.287109 -0.689726 0.240028 0.922849 -0.301126 0.019556 0.497215 
0.374413 0.193398 -0.719422 0.333506 0.695090 -0.636830 0.002002 0.453171 
0.739126 0.178003 -0.694695 0.246101 0.902707 -0.352886 0.019344 0.333415 
0.281873 0.287109 -0.689726 0.240028 0.922849 -0.301126 0.054573 0.502246 
0.329970 0.287109 -0.019316 -0.118686 0.978881 0.166356 0.283318 0.443997 
0.323288 0.287109 -0.614581 -0.373669 0.885372 -0.276467 0.077976 0.483265 
0.414284 0.287109 -0.019316 0.118534 0.979492 0.162847 0.278083 0.414853 
0.407602 0.287109 -0.614581 0.377453 0.879910 -0.288552 0.072741 0.454121 
0.323288 0.287109 -0.614581 -0.373669 0.885372 -0.276467 0.669752 0.709995 
0.329970 0.287109 -0.019316 -0.118686 0.978881 0.166356 0.460726 0.713908 
0.329970 0.287109 -0.019316 -0.118686 0.978881 0.166356 0.413741 0.834520 
0.414284 0.287109 -0.019316 0.118534 0.979492 0.162847 0.414142 0.864127 
0.414284 0.287109 -0.019316 0.118534 0.979492 0.162847 0.465452 0.982938 
0.407602 0.287109 -0.614581 0.377453 0.879910 -0.288552 0.674478 0.979044 
0.323288 0.287109 -0.614581 -0.373669 0.885372 -0.276467 0.703379 0.985483 
0.359806 0.660358 -0.737067 -0.536943 0.503525 -0.676809 0.720863 0.848038 
0.205118 0.136166 -1.244187 0.616077 -0.089908 -0.782495 0.820098 0.899968 
0.164387 0.078698 -1.244187 0.267281 -0.612323 -0.744011 0.840280 0.885664 
0.147884 0.101698 -1.244187 -0.232276 0.542497 -0.807276 0.832202 0.879868 
0.180886 0.136302 -1.244187 -0.525346 0.119358 -0.842463 0.820050 0.891458 
0.024489 0.078698 -1.244187 0.000000 -0.614368 -0.788995 0.840280 0.836534 
0.024489 0.101698 -1.244187 0.000000 0.707083 -0.707083 0.832202 0.836618 
0.024489 0.281139 -1.244187 0.000000 0.698233 -0.715842 0.769185 0.836534 
0.157908 0.281139 -1.244187 0.354320 0.653768 -0.668569 0.769185 0.883388 
0.141209 0.258139 -1.244187 -0.294015 -0.404981 -0.865719 0.777263 0.877524 
0.024489 0.258139 -1.244187 0.000000 -0.707083 -0.707083 0.777263 0.836619 
0.180886 0.136302 -1.244187 -0.525346 0.119358 -0.842463 0.814415 0.827340 
0.147884 0.101698 -1.244187 -0.232276 0.542497 -0.807276 0.831208 0.827340 
0.147884 0.101698 -1.134703 -0.306192 0.715140 -0.628315 0.831208 0.788890 
0.180886 0.136302 -1.134703 -0.774255 0.175939 -0.607868 0.814415 0.788890 
0.024489 0.101698 -1.244187 0.000000 0.707083 -0.707083 0.874458 0.827339 
0.024489 0.101698 -1.134703 0.000000 0.707083 -0.707083 0.874458 0.788890 
0.024489 0.258139 -1.244187 0.000000 -0.707083 -0.707083 0.728510 0.827340 
0.141209 0.258139 -1.244187 -0.294015 -0.404981 -0.865719 0.769416 0.827340 
0.141209 0.258139 -1.134703 -0.471877 -0.649922 -0.595721 0.769416 0.788890 
0.024489 0.258139 -1.134703 0.000000 -0.707083 -0.707083 0.728510 0.788890 
0.024489 -0.093200 1.410961 0.000000 -0.700095 0.714011 0.863882 0.984559 
0.087276 -0.093200 1.410961 0.385418 -0.658711 0.646138 0.863881 0.962508 
0.073103 -0.072200 1.410961 -0.288339 0.427259 0.856899 0.856507 0.967486 
0.024489 -0.072200 1.410961 0.000000 0.707083 0.707083 0.856507 0.984483 
0.140003 0.037510 1.410961 0.686422 0.007263 0.727134 0.817978 0.943991 
0.116909 0.036394 1.410961 -0.579547 -0.027985 0.814417 0.818369 0.952102 
0.098644 0.116956 1.410962 0.329600 0.641987 0.692190 0.790077 0.958516 
0.085902 0.095955 1.410962 -0.277932 -0.458052 0.844325 0.797452 0.962991 
0.024489 0.116956 1.410961 0.000000 0.665120 0.746727 0.790077 0.984559 
0.024489 0.095955 1.410961 0.000000 -0.707083 0.707083 0.797452 0.984483 
0.024489 -0.072200 1.410961 0.000000 0.707083 0.707083 0.871713 0.935972 
0.073103 -0.072200 1.410961 -0.288339 0.427259 0.856899 0.871713 0.918975 
0.116909 0.036394 1.410961 -0.579547 -0.027985 0.814417 0.871712 0.877853 
0.116909 0.036394 1.332946 -0.780541 -0.037690 0.623920 0.844315 0.877853 
0.085902 0.095955 1.410962 -0.277932 -0.458052 0.844325 0.871712 0.854270 
0.085902 0.095955 1.332946 -0.412305 -0.679464 0.606861 0.844314 0.854271 
0.024489 0.095955 1.410961 0.000000 -0.707083 0.707083 0.871712 0.832779 
0.024489 0.095955 1.332946 0.000000 -0.707083 0.707083 0.844314 0.832779 
0.374413 0.193398 -0.719422 0.333506 0.695090 -0.636830 0.393014 0.340403 
1.425318 0.121198 -0.652467 0.815332 0.574755 0.069704 0.100512 0.112895 
0.160536 0.442101 0.267340 0.501694 0.850948 0.155400 0.163031 0.751980 
0.024489 0.429597 -0.531496 0.000000 0.921964 -0.387249 0.020370 0.886982 
0.024489 0.407514 -0.556018 0.000000 0.880367 -0.474258 0.031959 0.886918 
-0.176912 -0.107457 0.686699 -0.521928 -0.847804 0.093661 0.267761 0.599794 
-0.231343 -0.100609 0.055828 -0.364818 -0.930357 0.036012 0.489328 0.580678 
-0.111558 0.442101 0.267340 -0.501694 0.850948 0.155400 0.162391 0.752178 
-0.070743 0.358256 0.594043 -0.296854 0.783837 0.545366 0.043861 0.738500 
-0.098906 0.101699 -1.134703 0.306192 0.715140 -0.628315 0.819348 0.741051 
-0.131907 0.136302 -1.134703 0.774255 0.175939 -0.607868 0.831500 0.729462 
-0.092231 0.258139 -1.134703 0.471877 -0.649922 -0.595721 0.874288 0.743395 
-0.036924 0.095955 1.332946 0.412305 -0.679464 0.606861 0.785260 0.914481 
-0.067931 0.036394 1.332946 0.780541 -0.037690 0.623920 0.806178 0.903592 
-0.024125 -0.072200 1.332946 0.447432 0.662954 0.600208 0.844315 0.918976 
-0.223835 -0.061477 -0.689726 -0.304636 -0.936918 -0.171178 0.751291 0.583313 
-0.115409 0.078698 -1.244187 -0.267281 -0.612323 -0.744011 0.952138 0.621389 
-0.038298 -0.093200 1.410961 -0.385418 -0.658711 0.646138 0.013478 0.648474 
-0.117666 0.429597 -0.531496 -0.354717 0.886807 -0.296152 0.443267 0.752771 
-0.123111 0.453974 -0.140110 -0.466872 0.884060 -0.020875 0.305564 0.755444 
-1.226115 0.093956 -0.983018 -0.405011 -0.602863 -0.687368 0.634246 0.688242 
-1.376131 0.091859 -0.646506 -0.812525 -0.556139 0.174566 0.504990 0.694171 
-1.376341 0.121198 -0.652467 -0.815332 0.574755 0.069704 0.506453 0.683772 
-1.225895 0.121198 -0.986660 -0.396283 0.517960 -0.758049 0.635061 0.678626 
-0.038298 -0.093200 1.410961 -0.385418 -0.658711 0.646138 0.016437 0.582556 
-0.091026 0.037510 1.410961 -0.686422 0.007263 0.727134 0.016213 0.533118 
-0.300707 0.143252 0.686699 -0.913450 0.357768 0.193854 0.275975 0.469760 
-0.176912 -0.107457 0.686699 -0.521928 -0.847804 0.093661 0.275029 0.567920 
-0.231343 -0.100609 0.055828 -0.364818 -0.930357 0.036012 0.496987 0.561031 
-0.333581 -0.024671 0.056698 -0.402509 -0.879513 0.253761 0.499469 0.516382 
-0.326960 0.008709 -0.680490 -0.328318 -0.924589 -0.193182 0.758401 0.527396 
-0.223835 -0.061477 -0.689726 -0.304636 -0.936918 -0.171178 0.758987 0.571316 
-0.340985 0.079002 -0.836519 -0.423566 -0.634968 -0.646016 0.816896 0.512743 
-0.115409 0.078698 -1.244187 -0.267281 -0.612323 -0.744011 0.962828 0.586745 
-0.156141 0.136166 -1.244187 -0.616077 -0.089908 -0.782495 0.967351 0.563288 
-0.340985 0.140065 -0.836519 -0.555437 0.575182 -0.600513 0.826049 0.494401 
-0.108930 0.281139 -1.244187 -0.354320 0.653768 -0.668569 0.996402 0.518310 
-0.325434 0.193399 -0.719422 -0.333506 0.695090 -0.636830 0.805205 0.453988 
-0.232895 0.287109 -0.689726 -0.240028 0.922849 -0.301126 0.827450 0.412162 
-0.240403 0.287109 0.013375 -0.526597 0.827570 0.194372 0.297138 0.455997 
-0.406721 0.287109 0.013375 -0.404187 0.803735 0.436598 0.286467 0.398646 
-0.361013 0.141062 0.225399 -0.503708 0.692831 0.515946 0.378493 0.397703 
-0.223042 0.191825 0.228140 -0.655141 0.727287 0.204413 0.379118 0.448823 
-0.361013 0.141062 0.225399 -0.503708 0.692831 0.515946 0.438799 0.462360 
-0.361013 0.099008 0.225399 -0.657186 -0.506821 0.557848 0.439901 0.475768 
-0.361013 0.099008 0.225399 -0.657186 -0.506821 0.557848 0.439585 0.475946 
-0.333581 -0.024671 0.056698 -0.402509 -0.879513 0.253761 0.499379 0.518015 
-0.333581 -0.024671 0.056698 -0.402509 -0.879513 0.253761 0.794338 0.355595 
-1.376131 0.091859 -0.646506 -0.812525 -0.556139 0.174566 0.354474 0.298731 
-1.226115 0.093956 -0.983018 -0.405011 -0.602863 -0.687368 0.348617 0.169471 
-0.326960 0.008709 -0.680490 -0.328318 -0.924589 -0.193182 0.679892 0.123066 
-0.340985 0.079002 -0.836519 -0.423566 -0.634968 -0.646016 0.648206 0.071762 
-0.340985 0.079002 -0.836519 -0.423566 -0.634968 -0.646016 0.947278 0.724442 
-1.225895 0.121198 -0.986660 -0.396283 0.517960 -0.758049 0.635057 0.678664 
-0.340985 0.140065 -0.836519 -0.555437 0.575182 -0.600513 0.949387 0.703120 
-0.340985 0.140065 -0.836519 -0.555437 0.575182 -0.600513 0.362484 0.374162 
-1.225895 0.121198 -0.986660 -0.396283 0.517960 -0.758049 0.077396 0.239528 
-0.690148 0.178003 -0.694695 -0.246101 0.902707 -0.352886 0.291451 0.261696 
-0.361013 0.141062 0.225399 -0.503708 0.692831 0.515946 0.569177 0.056714 
-0.403514 0.179611 0.048956 -0.673025 0.629109 0.388867 0.521928 0.101583 
-0.574705 0.142693 0.211640 -0.349590 0.593738 0.724723 0.503753 0.019629 
-0.361013 0.099008 0.225399 -0.657186 -0.506821 0.557848 0.017041 0.695399 
-0.361013 0.141062 0.225399 -0.503708 0.692831 0.515946 0.017250 0.680634 
-0.574705 0.142693 0.211640 -0.349590 0.593738 0.724723 0.092451 0.681126 
-0.574644 0.098587 0.213369 -0.391095 -0.466628 0.793237 0.092174 0.696617 
-0.361013 0.099008 0.225399 -0.657186 -0.506821 0.557848 0.810277 0.427951 
-0.574644 0.098587 0.213369 -0.391095 -0.466628 0.793237 0.738504 0.450203 
-0.300707 0.143252 0.686699 -0.913450 0.357768 0.193854 0.540394 0.418696 
-0.091026 0.037510 1.410961 -0.686422 0.007263 0.727134 0.802183 0.472604 
-0.049667 0.116956 1.410962 -0.329600 0.641987 0.692190 0.797043 0.501257 
-0.185972 0.192586 0.686699 -0.314798 0.903104 0.292001 0.540164 0.461722 
-0.340985 0.079002 -0.836519 -0.423566 -0.634968 -0.646016 0.817003 0.512798 
-0.156141 0.136166 -1.244187 -0.616077 -0.089908 -0.782495 0.967238 0.563233 
-0.240403 0.287109 0.013375 -0.526597 0.827570 0.194372 0.256175 0.830174 
-0.117666 0.429597 -0.531496 -0.354717 0.886807 -0.296152 0.443222 0.752772 
-0.232895 0.287109 -0.689726 -0.240028 0.922849 -0.301126 0.502528 0.813598 
-0.185972 0.192586 0.686699 -0.314798 0.903104 0.292001 0.008942 0.831945 
-0.070743 0.358256 0.594043 -0.296854 0.783837 0.545366 0.044767 0.763554 
-0.111558 0.442101 0.267340 -0.501694 0.850948 0.155400 0.163071 0.752602 
-0.223042 0.191825 0.228140 -0.655141 0.727287 0.204413 0.169232 0.848982 
-0.111558 0.442101 0.267340 -0.501694 0.850948 0.155400 0.163131 0.752067 
-0.055225 0.137050 1.237698 -0.127079 0.977691 0.167119 0.895154 0.334028 
-0.049667 0.116956 1.410962 -0.329600 0.641987 0.692190 0.901844 0.394949 
-0.152106 0.184784 0.688739 -0.220740 0.850032 0.478195 0.901609 0.137730 
-0.185972 0.192586 0.686699 -0.314798 0.903104 0.292001 0.913239 0.135039 
-0.152106 0.184784 0.688739 -0.220740 0.850032 0.478195 0.901333 0.137793 
-0.052171 0.329454 0.610152 -0.114353 0.688131 0.716483 0.866236 0.079977 
-0.070743 0.358256 0.594043 -0.296854 0.783837 0.545366 0.872751 0.068390 
-0.052171 0.329454 0.610152 -0.114353 0.688131 0.716483 0.842103 0.102473 
-0.055225 0.137050 1.237698 -0.127079 0.977691 0.167119 0.843182 0.332986 
-0.152106 0.184784 0.688739 -0.220740 0.850032 0.478195 0.895750 0.143665 
-0.117666 0.429597 -0.531496 -0.354717 0.886807 -0.296152 0.020646 0.936904 
-0.098002 0.407514 -0.556018 -0.074709 0.836726 -0.542467 0.032197 0.929934 
-0.198619 0.281778 -0.692996 -0.203833 0.932005 -0.299570 0.097687 0.964908 
-0.232895 0.287109 -0.689726 -0.240028 0.922849 -0.301126 0.095647 0.976957 
-0.198619 0.281778 -0.692996 -0.203833 0.932005 -0.299570 0.097666 0.965035 
-0.116699 0.286745 -1.019037 -0.073763 0.993255 -0.089389 0.213946 0.944621 
-0.108930 0.281139 -1.244187 -0.354320 0.653768 -0.668569 0.293008 0.947619 
-0.116699 0.286745 -1.019037 -0.073763 0.993255 -0.089389 0.209413 0.914627 
-0.098002 0.407514 -0.556018 -0.074709 0.836726 -0.542467 0.041333 0.908991 
-0.198619 0.281778 -0.692996 -0.203833 0.932005 -0.299570 0.098818 0.955980 
-1.376341 0.121198 -0.652467 -0.815332 0.574755 0.069704 0.100291 0.112873 
-0.809489 0.178003 -0.339700 -0.376385 0.919462 0.113559 0.327434 0.135189 
-0.310828 0.660359 -0.737067 0.536943 0.503555 -0.676809 0.715080 0.840924 
-0.327469 0.660358 -0.737067 -0.537095 0.501358 -0.678335 0.715159 0.846767 
-0.328788 0.660358 -0.446952 -0.601459 0.753502 0.265389 0.613290 0.848608 
-0.312147 0.660358 -0.446952 0.598651 0.753990 0.270302 0.613211 0.842764 
-0.399214 0.287109 -0.689726 -0.089541 0.798242 -0.595599 0.044252 0.444516 
-0.657979 0.231637 -0.682955 -0.392987 0.705588 -0.589618 0.030096 0.352976 
-0.764814 0.231637 -0.337916 -0.576861 0.795892 0.183691 0.142927 0.295090 
-0.403514 0.179611 0.048956 -0.673025 0.629109 0.388867 0.308793 0.365960 
-0.809489 0.178003 -0.339700 -0.376385 0.919462 0.113559 0.135562 0.271909 
-0.232895 0.287109 -0.689726 -0.240028 0.922849 -0.301126 0.019556 0.497215 
-0.325434 0.193399 -0.719422 -0.333506 0.695090 -0.636830 0.002002 0.453171 
-0.690148 0.178003 -0.694695 -0.246101 0.902707 -0.352886 0.019344 0.333415 
-0.232895 0.287109 -0.689726 -0.240028 0.922849 -0.301126 0.054573 0.502246 
-0.274310 0.287109 -0.614581 0.373669 0.885372 -0.276467 0.077976 0.483265 
-0.280992 0.287109 -0.019316 0.118686 0.978881 0.166356 0.283318 0.443997 
-0.365306 0.287109 -0.019316 -0.118534 0.979492 0.162847 0.278083 0.414853 
-0.358624 0.287109 -0.614581 -0.377453 0.879910 -0.288552 0.072741 0.454121 
-0.274310 0.287109 -0.614581 0.373669 0.885372 -0.276467 0.669752 0.709995 
-0.280992 0.287109 -0.019316 0.118686 0.978881 0.166356 0.460726 0.713908 
-0.280992 0.287109 -0.019316 0.118686 0.978881 0.166356 0.413741 0.834520 
-0.365306 0.287109 -0.019316 -0.118534 0.979492 0.162847 0.414142 0.864127 
-0.365306 0.287109 -0.019316 -0.118534 0.979492 0.162847 0.465452 0.982938 
-0.358624 0.287109 -0.614581 -0.377453 0.879910 -0.288552 0.674478 0.979044 
-0.310828 0.660359 -0.737067 0.536943 0.503555 -0.676809 0.720863 0.848038 
-0.274310 0.287109 -0.614581 0.373669 0.885372 -0.276467 0.703379 0.985483 
-0.156141 0.136166 -1.244187 -0.616077 -0.089908 -0.782495 0.820098 0.899968 
-0.131907 0.136302 -1.244187 0.525346 0.119358 -0.842463 0.820050 0.891458 
-0.098906 0.101698 -1.244187 0.232276 0.542497 -0.807276 0.832202 0.879868 
-0.115409 0.078698 -1.244187 -0.267281 -0.612323 -0.744011 0.840280 0.885664 
-0.092231 0.258139 -1.244187 0.294015 -0.404981 -0.865719 0.777263 0.877524 
-0.108930 0.281139 -1.244187 -0.354320 0.653768 -0.668569 0.769185 0.883388 
-0.131907 0.136302 -1.244187 0.525346 0.119358 -0.842463 0.814415 0.827340 
-0.131907 0.136302 -1.134703 0.774255 0.175939 -0.607868 0.814415 0.788890 
-0.098906 0.101699 -1.134703 0.306192 0.715140 -0.628315 0.831208 0.788890 
-0.098906 0.101698 -1.244187 0.232276 0.542497 -0.807276 0.831208 0.827340 
-0.092231 0.258139 -1.134703 0.471877 -0.649922 -0.595721 0.769416 0.788890 
-0.092231 0.258139 -1.244187 0.294015 -0.404981 -0.865719 0.769416 0.827340 
-0.024125 -0.072200 1.410961 0.288339 0.427259 0.856899 0.856507 0.967486 
-0.038298 -0.093200 1.410961 -0.385418 -0.658711 0.646138 0.863881 0.962508 
-0.067931 0.036394 1.410961 0.579547 -0.027985 0.814417 0.818369 0.952102 
-0.091026 0.037510 1.410961 -0.686422 0.007263 0.727134 0.817978 0.943991 
-0.036924 0.095955 1.410961 0.277932 -0.458052 0.844325 0.797452 0.962991 
-0.049667 0.116956 1.410962 -0.329600 0.641987 0.692190 0.790077 0.958516 
-0.024125 -0.072200 1.410961 0.288339 0.427259 0.856899 0.871713 0.918975 
-0.067931 0.036394 1.332946 0.780541 -0.037690 0.623920 0.844315 0.877853 
-0.067931 0.036394 1.410961 0.579547 -0.027985 0.814417 0.871712 0.877853 
-0.036924 0.095955 1.332946 0.412305 -0.679464 0.606861 0.844314 0.854271 
-0.036924 0.095955 1.410961 0.277932 -0.458052 0.844325 0.871712 0.854270 
-0.325434 0.193399 -0.719422 -0.333506 0.695090 -0.636830 0.393014 0.340403 
-1.376341 0.121198 -0.652467 -0.815332 0.574755 0.069704 0.100512 0.112895 
-0.111558 0.442101 0.267340 -0.501694 0.850948 0.155400 0.163031 0.751980 
3 0 1 2
3 3 0 2
3 4 5 6
3 6 7 4
3 8 9 10
3 11 8 10
3 11 10 12
3 13 14 15
3 16 13 15
3 17 16 15
3 18 19 20
3 20 21 18
3 21 20 1
3 1 0 21
3 22 23 3
3 3 2 22
3 24 25 26
3 26 27 24
3 28 29 30
3 30 31 28
3 32 33 34
3 34 35 32
3 36 37 38
3 38 39 36
3 37 40 41
3 41 38 37
3 42 43 44
3 43 45 46
3 46 44 43
3 47 48 49
3 49 50 47
3 34 33 51
3 51 52 34
3 53 33 36
3 36 54 53
3 55 56 57
3 57 58 55
3 56 59 57
3 60 61 62
3 62 28 60
3 63 64 65
3 66 67 68
3 69 70 71
3 71 72 69
3 73 55 74
3 75 76 77
3 77 78 75
3 79 40 80
3 80 44 79
3 81 82 83
3 83 27 81
3 84 85 86
3 86 87 84
3 81 27 88
3 4 27 26
3 26 5 4
3 89 90 91
3 91 92 89
3 90 93 94
3 94 91 90
3 93 95 96
3 96 97 93
3 95 98 99
3 99 96 95
3 100 101 102
3 102 103 100
3 104 103 102
3 105 106 107
3 107 108 105
3 106 109 110
3 110 111 106
3 109 112 113
3 113 110 109
3 114 115 116
3 116 117 114
3 118 117 116
3 119 65 64
3 64 120 119
3 121 122 123
3 123 124 121
3 125 50 126
3 126 127 125
3 128 129 126
3 126 50 128
3 130 125 131
3 131 125 127
3 127 132 131
3 133 47 134
3 134 135 133
3 47 50 136
3 136 134 47
3 50 125 137
3 137 136 50
3 125 133 135
3 135 137 125
3 138 139 122
3 122 121 138
3 140 141 123
3 123 122 140
3 142 143 124
3 124 123 142
3 143 144 145
3 145 124 143
3 67 120 68
3 31 30 71
3 71 70 31
3 55 58 74
3 146 147 148
3 148 149 146
3 147 150 151
3 151 148 147
3 152 153 154
3 154 155 152
3 153 146 149
3 149 154 153
3 156 157 158
3 158 159 156
3 157 160 161
3 161 158 157
3 162 163 164
3 164 165 162
3 163 156 159
3 159 164 163
3 166 167 168
3 168 169 166
3 167 170 171
3 171 168 167
3 170 172 173
3 173 171 170
3 172 174 175
3 175 173 172
3 176 177 17
3 17 15 176
3 177 178 179
3 179 17 177
3 178 180 181
3 181 179 178
3 180 182 183
3 183 181 180
3 76 75 49
3 49 48 76
3 63 184 64
3 67 185 120
3 129 132 127
3 127 126 129
3 49 128 50
3 85 81 186
3 187 105 108
3 108 188 187
3 0 3 189
3 190 0 189
3 191 192 6
3 6 5 191
3 11 193 194
3 194 195 8
3 11 194 8
3 15 14 196
3 15 196 197
3 198 15 197
3 18 21 199
3 199 200 18
3 21 0 190
3 190 199 21
3 201 189 3
3 3 23 201
3 202 203 26
3 26 25 202
3 204 205 206
3 206 207 204
3 208 209 210
3 210 211 208
3 212 213 214
3 214 215 212
3 215 214 216
3 216 217 215
3 218 219 220
3 220 219 221
3 221 222 220
3 223 224 225
3 225 226 223
3 210 227 228
3 228 211 210
3 229 230 212
3 212 211 229
3 231 232 233
3 233 234 231
3 234 233 235
3 236 204 237
3 237 238 236
3 239 240 241
3 242 243 244
3 245 246 247
3 247 248 245
3 249 250 231
3 251 252 253
3 253 254 251
3 255 219 256
3 256 217 255
3 257 203 258
3 258 259 257
3 260 261 262
3 262 263 260
3 257 264 203
3 191 5 26
3 26 203 191
3 89 92 265
3 265 266 89
3 266 265 267
3 267 268 266
3 268 269 270
3 270 271 268
3 271 270 99
3 99 98 271
3 100 272 273
3 273 101 100
3 274 273 272
3 275 276 277
3 277 278 275
3 278 279 280
3 280 281 278
3 281 280 113
3 113 112 281
3 114 282 283
3 283 115 114
3 284 283 282
3 285 286 241
3 241 240 285
3 287 288 289
3 289 290 287
3 291 292 293
3 293 224 291
3 294 224 293
3 293 295 294
3 296 297 291
3 297 298 292
3 292 291 297
3 299 300 301
3 301 223 299
3 223 301 302
3 302 224 223
3 224 302 303
3 303 291 224
3 291 303 300
3 300 299 291
3 304 287 290
3 290 305 304
3 306 290 289
3 289 307 306
3 308 289 288
3 288 309 308
3 309 288 310
3 310 311 309
3 244 243 286
3 205 248 247
3 247 206 205
3 231 250 232
3 312 313 314
3 314 315 312
3 315 314 151
3 151 150 315
3 152 155 316
3 316 317 152
3 317 316 313
3 313 312 317
3 318 319 320
3 320 321 318
3 321 320 161
3 161 160 321
3 162 165 322
3 322 323 162
3 323 322 319
3 319 318 323
3 166 169 324
3 324 325 166
3 325 324 326
3 326 327 325
3 327 326 328
3 328 329 327
3 329 328 175
3 175 174 329
3 176 15 198
3 198 330 176
3 330 198 331
3 331 332 330
3 332 331 333
3 333 334 332
3 334 333 183
3 183 182 334
3 254 226 225
3 225 251 254
3 239 241 335
3 244 286 336
3 295 293 292
3 292 298 295
3 225 224 294
3 263 337 257
3 187 188 276
3 276 275 187
